<svg xmlns="http://www.w3.org/2000/svg" viewBox="0 0 281.6 281.6"><defs><style>.cls-1{fill:#0cba59;}</style></defs><title>criacao-de-layouts</title><g id="Camada_2" data-name="Camada 2"><g id="Layer_1" data-name="Layer 1"><rect class="cls-1" x="218.57" y="260.04" width="10.37" height="10.24"/><rect class="cls-1" x="114.87" y="260.04" width="10.37" height="10.24"/><rect class="cls-1" x="52.66" y="260.04" width="10.37" height="10.24"/><rect class="cls-1" x="73.4" y="260.04" width="10.36" height="10.24"/><rect class="cls-1" x="135.61" y="260.04" width="10.37" height="10.24"/><rect class="cls-1" x="156.36" y="260.04" width="10.37" height="10.24"/><rect class="cls-1" x="94.13" y="260.04" width="10.37" height="10.24"/><rect class="cls-1" x="177.1" y="260.04" width="10.37" height="10.24"/><rect class="cls-1" x="197.84" y="260.04" width="10.37" height="10.24"/><rect class="cls-1" x="11.3" y="94.13" width="10.24" height="10.37"/><rect class="cls-1" x="11.3" y="135.61" width="10.24" height="10.37"/><rect class="cls-1" x="11.3" y="114.87" width="10.24" height="10.37"/><rect class="cls-1" x="11.3" y="52.66" width="10.24" height="10.37"/><rect class="cls-1" x="11.3" y="218.57" width="10.24" height="10.37"/><rect class="cls-1" x="11.3" y="73.4" width="10.24" height="10.37"/><rect class="cls-1" x="11.3" y="156.36" width="10.24" height="10.37"/><rect class="cls-1" x="11.3" y="177.1" width="10.24" height="10.37"/><rect class="cls-1" x="11.3" y="197.84" width="10.24" height="10.37"/><rect class="cls-1" x="73.4" y="11.31" width="10.37" height="10.24"/><rect class="cls-1" x="52.66" y="11.31" width="10.37" height="10.24"/><rect class="cls-1" x="94.14" y="11.31" width="10.37" height="10.24"/><rect class="cls-1" x="177.1" y="11.31" width="10.37" height="10.24"/><rect class="cls-1" x="197.84" y="11.31" width="10.37" height="10.24"/><rect class="cls-1" x="218.57" y="11.31" width="10.37" height="10.24"/><rect class="cls-1" x="114.88" y="11.31" width="10.37" height="10.24"/><rect class="cls-1" x="135.62" y="11.31" width="10.37" height="10.24"/><rect class="cls-1" x="156.36" y="11.31" width="10.37" height="10.24"/><rect class="cls-1" x="260.04" y="135.62" width="10.24" height="10.37"/><rect class="cls-1" x="260.04" y="156.36" width="10.24" height="10.37"/><rect class="cls-1" x="260.04" y="114.88" width="10.24" height="10.37"/><rect class="cls-1" x="260.04" y="197.84" width="10.24" height="10.36"/><rect class="cls-1" x="260.04" y="177.1" width="10.24" height="10.37"/><rect class="cls-1" x="260.04" y="218.57" width="10.24" height="10.37"/><rect class="cls-1" x="260.04" y="94.14" width="10.24" height="10.37"/><rect class="cls-1" x="260.04" y="73.4" width="10.24" height="10.37"/><polygon class="cls-1" points="270.29 239.31 260.05 239.31 260.05 248.75 248.75 248.75 248.75 260.05 239.31 260.05 239.31 270.29 248.75 270.29 248.75 281.6 281.6 281.6 281.6 248.75 270.29 248.75 270.29 239.31"/><rect class="cls-1" x="260.04" y="52.66" width="10.24" height="10.37"/><polygon class="cls-1" points="32.85 0 0 0 0 32.85 11.31 32.85 11.31 42.29 21.55 42.29 21.55 32.85 32.85 32.85 32.85 21.55 42.29 21.55 42.29 11.31 32.85 11.31 32.85 0"/><polygon class="cls-1" points="248.75 0 248.75 11.31 239.31 11.31 239.31 21.55 248.75 21.55 248.75 32.85 260.05 32.85 260.05 42.29 270.29 42.29 270.29 32.85 281.6 32.85 281.6 0 248.75 0"/><polygon class="cls-1" points="32.85 248.75 21.55 248.75 21.55 239.31 11.31 239.31 11.31 248.75 0 248.75 0 281.6 32.85 281.6 32.85 270.29 42.29 270.29 42.29 260.05 32.85 260.05 32.85 248.75"/><rect class="cls-1" x="43.11" y="130.5" width="195.38" height="10.24"/><path class="cls-1" d="M42.87,40.26V117.9H238.73V40.26Zm82.92,38.82L53.11,105.47V52.69ZM77.1,50.5H204.5L140.8,73.63Zm63.7,34,63.7,23.13H77.1Zm15-5.45,72.68-26.39v52.78Z"/><rect class="cls-1" x="43.11" y="156.42" width="92.52" height="10.24"/><rect class="cls-1" x="145.97" y="156.42" width="92.52" height="10.24"/><rect class="cls-1" x="43.11" y="182.32" width="92.52" height="10.24"/><rect class="cls-1" x="145.97" y="182.32" width="92.52" height="10.24"/><rect class="cls-1" x="43.11" y="208.28" width="92.52" height="10.24"/><rect class="cls-1" x="145.97" y="208.28" width="92.52" height="10.24"/><rect class="cls-1" x="43.11" y="234.19" width="92.52" height="10.24"/><rect class="cls-1" x="145.97" y="234.19" width="92.52" height="10.24"/></g></g></svg>