<?xml version="1.0" encoding="utf-8"?>
<!-- Generator: Adobe Illustrator 21.1.0, SVG Export Plug-In . SVG Version: 6.00 Build 0)  -->
<svg version="1.1" id="Camada_1" xmlns="http://www.w3.org/2000/svg" xmlns:xlink="http://www.w3.org/1999/xlink" x="0px" y="0px"
	 viewBox="0 0 353.5 230.2" style="enable-background:new 0 0 353.5 230.2;" xml:space="preserve">
<style type="text/css">
	.st0{fill:#0CBA59;}
</style>
<title>criacao-sites</title>
<g id="Camada_2">
	<g id="Camada_1-2">
		<path class="st0" d="M351.6,204.7c-1.3-1.3-3.1-2-4.9-1.9H141.1c-3.6-0.1-6.7,2.7-6.9,6.3c0,0.2,0,0.3,0,0.5v13.7
			c-0.1,3.6,2.7,6.7,6.3,6.9c0.2,0,0.4,0,0.5,0h205.6c3.6,0.1,6.7-2.7,6.9-6.3c0-0.2,0-0.4,0-0.5v-13.7
			C353.6,207.8,352.9,206,351.6,204.7L351.6,204.7z"/>
		<path class="st0" d="M22.7,2.1c-2.5-2.7-6.8-2.9-9.5-0.3c-0.1,0.1-0.2,0.2-0.3,0.3L2.1,12.9c-2.7,2.5-2.9,6.8-0.3,9.5
			c0.1,0.1,0.2,0.2,0.3,0.3l84.2,84.1L2.1,191c-2.7,2.5-2.9,6.8-0.3,9.5c0.1,0.1,0.2,0.2,0.3,0.3l10.7,10.7c2.5,2.7,6.8,2.9,9.5,0.3
			c0.1-0.1,0.2-0.2,0.3-0.3l99.8-99.8c2.7-2.5,2.9-6.8,0.3-9.5c-0.1-0.1-0.2-0.2-0.3-0.3L22.7,2.1z"/>
	</g>
</g>
</svg>
