<svg xmlns="http://www.w3.org/2000/svg" viewBox="0 0 383.99 384"><defs><style>.cls-1{fill:#3aad59;}</style></defs><title>design-grafico</title><g id="Camada_2" data-name="Camada 2"><g id="Camada_1-2" data-name="Camada 1"><path class="cls-1" d="M378.63,54.46,329.53,5.36a18.36,18.36,0,0,0-25.94,0L211.17,97.79a5.93,5.93,0,1,0,8.38,8.38L312,13.75a6.48,6.48,0,0,1,9.17,0l49.09,49.09a6.48,6.48,0,0,1,0,9.18l-12,12L326.63,52.49a5.93,5.93,0,0,0-8.38,8.38l31.57,31.57L336,106.21,322.18,92.33a5.93,5.93,0,0,0-8.38,8.38l13.88,13.87L313.9,128.35,300,114.48a5.93,5.93,0,0,0-8.38,8.38l13.87,13.87L291.76,150.5l-31.57-31.57a5.93,5.93,0,0,0-8.38,8.38l31.57,31.57-13.77,13.77-13.87-13.87a5.93,5.93,0,0,0-8.38,8.38L261.23,181l-11.64,11.65L191.32,134.4l10.84-10.84a5.93,5.93,0,0,0-8.38-8.38L182.93,126,73.61,16.7A40.26,40.26,0,1,0,16.68,73.63L126,183,5.36,303.6a18.37,18.37,0,0,0,0,25.94l49.09,49.09a18.34,18.34,0,0,0,25.94,0L201,258l8.59,8.59A5.93,5.93,0,1,0,218,258.2l-11.86-11.86a6,6,0,0,0-.82-1,5.8,5.8,0,0,0-1-.82L75.88,116.07l15.89-15.89,9.83,9.82a5.92,5.92,0,0,0,8.38-8.38l-9.82-9.83,15.89-15.89,62.68,62.68h0l66.06,66.06a5.77,5.77,0,0,0,.53.63,6.33,6.33,0,0,0,.63.54l87.95,88L318,309.67l-88.74-88.73-.16-.18-35.39-35.39-.18-.16L131.06,122.7a5.93,5.93,0,1,0-8.38,8.38l187,187-15.89,15.89-56.32-56.32a5.93,5.93,0,0,0-8.38,8.38l60.51,60.51a6,6,0,0,0,2,1.33l71.61,27.8a9.5,9.5,0,0,0,3.47.65,9.62,9.62,0,0,0,9-13.1l-27.83-71.58a6.08,6.08,0,0,0-1.34-2L258,201.06,378.63,80.39a18.36,18.36,0,0,0,0-25.93Zm-186,195.15L181,261.23l-13.88-13.87a5.92,5.92,0,1,0-8.38,8.38l13.87,13.87-13.76,13.77-31.57-31.57a5.93,5.93,0,0,0-8.38,8.38l31.57,31.57-13.77,13.77-13.87-13.87a5.93,5.93,0,0,0-8.38,8.38l13.87,13.88-13.76,13.77L100.71,313.8a5.93,5.93,0,0,0-8.38,8.38l13.87,13.87L92.44,349.82,60.87,318.25a5.93,5.93,0,0,0-8.38,8.38L84.06,358.2l-12,12a6.48,6.48,0,0,1-9.18,0L13.74,321.15a6.5,6.5,0,0,1,0-9.17L134.39,191.34ZM25.06,65.25A28.4,28.4,0,0,1,65.23,25.08L84,43.81,43.79,84ZM87.59,87.6h0L67.51,107.69,52.17,92.36,92.35,52.19l15.33,15.33ZM362.77,362.76l-58.4-22.67,35.7-35.7Zm0,0"/></g></g></svg>