<svg xmlns="http://www.w3.org/2000/svg" viewBox="0 0 480 480"><defs><style>.cls-1{fill:#3aad59;}</style></defs><title>e-mail-marketing</title><g id="Camada_2" data-name="Camada 2"><g id="Camada_1-2" data-name="Camada 1"><path class="cls-1" d="M479.1,236.41a7.86,7.86,0,0,0-1.85-2.4c-.05-.05-.08-.15-.14-.2L432,196.51V32A32,32,0,0,0,400,0H80A32,32,0,0,0,48,32V196.51L2.89,233.83c-.06.05-.09.14-.14.2a8,8,0,0,0-1.85,2.4c-.08.17-.15.35-.21.53A7.83,7.83,0,0,0,0,240V472c0,.19.1.36.11.55a7.38,7.38,0,0,0,.22,1.73c0,.17.16.29.21.45a6.89,6.89,0,0,0,.46.94,7.4,7.4,0,0,0,1,1.52,9.9,9.9,0,0,0,.71.74A7.81,7.81,0,0,0,4.34,479a7.53,7.53,0,0,0,.8.43A8,8,0,0,0,8,480H472a8,8,0,0,0,2.86-.57,7.53,7.53,0,0,0,.8-.43,7.81,7.81,0,0,0,1.6-1.06,9.91,9.91,0,0,0,.71-.74,7.4,7.4,0,0,0,1-1.52,6.89,6.89,0,0,0,.46-.94c.05-.16.17-.29.22-.45a7.38,7.38,0,0,0,.22-1.73c0-.19.11-.36.11-.55V240a7.79,7.79,0,0,0-.69-3.06c-.06-.18-.14-.36-.21-.53ZM464,457.23l-161-105,161-98ZM64,240V32A16,16,0,0,1,80,16H400a16,16,0,0,1,16,16V240h16V217.28L458.25,239,285.76,344H194.24L21.75,239,48,217.28V240ZM177,352.23l-161,105v-203ZM34.91,464,194.4,360h91.2L445.09,464Zm0,0"/><path class="cls-1" d="M120,205.53v58.8a8,8,0,0,0,8,8h32a8,8,0,0,0,8-8v-56h6.61L280,246v10a24,24,0,0,0,24,24h.51A24.14,24.14,0,0,0,328,256V64.34a24,24,0,1,0-48,0v10.4l-105.39,37.6H136a48,48,0,0,0-16,93.2Zm32,50.8H136v-48h16Zm144-192a8,8,0,0,1,16,0V256a8,8,0,0,1-7.83,8,7.51,7.51,0,0,1-5.77-2.29A7.91,7.91,0,0,1,296,256ZM280,229,184,194.7V126l96-34.29ZM136,128.34h32v64H136a32,32,0,1,1,0-64Zm0,0"/><rect class="cls-1" x="344" y="152.34" width="40" height="16"/><path class="cls-1" d="M341.13,88.25l40-15.39,5.74,14.93-40,15.39Zm0,0"/><path class="cls-1" d="M341.13,232.42l5.74-14.93,40,15.38-5.74,14.93Zm0,0"/><rect class="cls-1" x="80" y="32" width="16" height="16"/><rect class="cls-1" x="112" y="32" width="16" height="16"/><rect class="cls-1" x="144" y="32" width="16" height="16"/></g></g></svg>