<svg xmlns="http://www.w3.org/2000/svg" viewBox="0 0 253.5 253.5"><defs><style>.cls-1{fill:#3aad59;}</style></defs><title>redes-sociais</title><g id="Camada_2" data-name="Camada 2"><g id="Camada_1-2" data-name="Camada 1"><path class="cls-1" d="M237.4,165.38A113.1,113.1,0,0,0,186.23,43a4.37,4.37,0,1,0-4.57,7.44,104.43,104.43,0,0,1,47.48,111.86,31.42,31.42,0,0,0-6.24-.64,30.62,30.62,0,1,0,14.5,3.67Zm0,0"/><path class="cls-1" d="M166.84,236.82A104.84,104.84,0,0,1,52.38,213.76a30.59,30.59,0,1,0-7,5.33,113.57,113.57,0,0,0,124.82,25.81,4.37,4.37,0,0,0-3.35-8.08Zm0,0"/><path class="cls-1" d="M17.48,136.42h.32a4.36,4.36,0,0,0,4.35-4.05A104.37,104.37,0,0,1,97.41,39.22a30.56,30.56,0,1,0-1.25-8.74A113.08,113.08,0,0,0,13.43,131.76a4.36,4.36,0,0,0,4.05,4.67Zm0,0"/></g></g></svg>