<svg xmlns="http://www.w3.org/2000/svg" viewBox="0 0 356.4 381.07"><defs><style>.cls-1{fill:#3aad59;}</style></defs><title>responsivo</title><g id="Camada_2" data-name="Camada 2"><g id="Camada_1-2" data-name="Camada 1"><path class="cls-1" d="M338,0H129.08a18.44,18.44,0,0,0-18.45,18.45V79.88H18.45A18.44,18.44,0,0,0,0,98.32V307.27a18.44,18.44,0,0,0,18.45,18.45h92.17v36.9a18.44,18.44,0,0,0,18.45,18.45H338a18.44,18.44,0,0,0,18.45-18.45V18.45A18.44,18.44,0,0,0,338,0ZM122.85,18.38A6.17,6.17,0,0,1,129,12.23H338a6.18,6.18,0,0,1,6.15,6.15V49.13H122.85Zm0,43.05H344.1V295H159.75V98.32A18.44,18.44,0,0,0,141.3,79.88H122.85ZM12.3,98.32a6.18,6.18,0,0,1,6.15-6.15H141.37a6.18,6.18,0,0,1,6.15,6.15v18.45H12.3Zm0,30.75H147.45V276.52H12.3Zm6.15,184.35a6.18,6.18,0,0,1-6.15-6.15V288.82H147.45v18.45a6.18,6.18,0,0,1-6.15,6.15Zm325.72,49.13h-.07A6.18,6.18,0,0,1,338,368.7H129.08a6.18,6.18,0,0,1-6.15-6.15v-36.9h18.45a18.44,18.44,0,0,0,18.45-18.45H344.18Zm0,0"/><rect class="cls-1" x="61.43" y="98.32" width="36.9" height="12.3"/><rect class="cls-1" x="36.83" y="98.32" width="12.3" height="12.3"/><rect class="cls-1" x="73.73" y="294.98" width="12.3" height="12.3"/><rect class="cls-1" x="208.95" y="24.6" width="49.13" height="12.3"/><path class="cls-1" d="M233.48,362.55a24.6,24.6,0,1,0-24.6-24.6,24.62,24.62,0,0,0,24.6,24.6Zm0-36.82a12.3,12.3,0,1,1-12.3,12.3,12.31,12.31,0,0,1,12.3-12.3Zm0,0"/></g></g></svg>