<svg xmlns="http://www.w3.org/2000/svg" viewBox="0 0 480 352"><defs><style>.cls-1{fill:#3aad59;}</style></defs><title>tecnologias</title><g id="Camada_2" data-name="Camada 2"><g id="Camada_1-2" data-name="Camada 1"><path class="cls-1" d="M472,288H456V40A40,40,0,0,0,416,0H64A40,40,0,0,0,24,40V288H8a8,8,0,0,0-8,8v32a24,24,0,0,0,24,24H456a24,24,0,0,0,24-24V296a8,8,0,0,0-8-8ZM40,40A24,24,0,0,1,64,16H416a24,24,0,0,1,24,24V288H40ZM464,328a8,8,0,0,1-8,8H24a8,8,0,0,1-8-8V304H464Zm0,0"/><rect class="cls-1" x="208" y="312" width="64" height="16"/><path class="cls-1" d="M186.34,117.66l11.31-11.31L179.31,88l18.34-18.34L186.34,58.34l-24,24a8,8,0,0,0,0,11.31Zm0,0"/><path class="cls-1" d="M293.66,117.66l24-24a8,8,0,0,0,0-11.31l-24-24L282.34,69.66,300.69,88l-18.34,18.34Zm0,0"/><path class="cls-1" d="M216.57,125l32-80L263.45,51l-32,80Zm0,0"/><rect class="cls-1" x="176" y="144" width="48" height="16"/><rect class="cls-1" x="160" y="176" width="32" height="16"/><rect class="cls-1" x="208" y="176" width="32" height="16"/><rect class="cls-1" x="128" y="208" width="96" height="16"/><rect class="cls-1" x="144" y="144" width="16" height="16"/><rect class="cls-1" x="152" y="240" width="96" height="16"/><rect class="cls-1" x="264" y="240" width="16" height="16"/><rect class="cls-1" x="256" y="176" width="32" height="16"/><rect class="cls-1" x="240" y="208" width="32" height="16"/><rect class="cls-1" x="288" y="208" width="32" height="16"/><rect class="cls-1" x="240" y="144" width="64" height="16"/><rect class="cls-1" x="296" y="240" width="48" height="16"/></g></g></svg>