<?xml version="1.0" encoding="utf-8"?>
<!-- Generator: Adobe Illustrator 21.1.0, SVG Export Plug-In . SVG Version: 6.00 Build 0)  -->
<svg version="1.1" id="Camada_1" xmlns="http://www.w3.org/2000/svg" xmlns:xlink="http://www.w3.org/1999/xlink" x="0px" y="0px"
	 viewBox="0 0 512 508" style="enable-background:new 0 0 512 508;" xml:space="preserve">
<style type="text/css">
	.st0{fill:url(#SVGID-2_1_);}
	.st1{clip-path:url(#SVGID_2_);}
	.st2{fill:#FFFFFF;}
</style>
<title>Ativo 1</title>
<g id="Camada_2">
	<g id="Camada_1-2">
		
			<linearGradient id="SVGID-2_1_" gradientUnits="userSpaceOnUse" x1="0" y1="404.0063" x2="512" y2="404.0063" gradientTransform="matrix(1 0 0 1 0 -150)">
			<stop  offset="0" style="stop-color:#28A590"/>
			<stop  offset="1" style="stop-color:#0CB959"/>
		</linearGradient>
		<path id="SVGID-2" class="st0" d="M256,508h-0.1c-39.9,0-79.3-9.4-115-27.3L31.5,505.5c-10.8,2.5-21.5-4.3-24-15
			c-0.7-2.9-0.7-5.9,0-8.8l23.7-107.8C10.8,336.3,0.1,295.1,0,254.3c0-0.1,0-0.3,0-0.4c0-67.7,26.8-131.4,75.4-179.5
			c99.9-99.2,261.1-99.2,361,0.1c48.8,48.6,75.6,112.4,75.6,179.6c0,50.7-15.3,100.2-44,142c-6.4,9-18.9,11.1-27.9,4.6
			c-8.7-6.2-11-18.2-5.1-27.2c24.1-35.1,37-76.8,37-119.4c0-56.5-22.7-110.2-63.9-151.3C367.8,62.4,313,39.8,256,40
			C137.1,40,40.3,135.7,40,253.5c0,0.1,0,0.3,0,0.4c0,36.4,10.2,73.4,29.7,106.9c2.5,4.3,3.3,9.4,2.2,14.3l-18.6,84.4l85.8-19.5
			c4.7-1.1,9.7-0.4,14,1.9c31.6,17.1,66.9,26,102.7,26h0.1c39,0,77.3-10.5,110.8-30.5c9.5-5.7,21.8-2.5,27.4,6.9
			c5.7,9.5,2.5,21.8-6.9,27.4C347.6,495.5,302.2,507.9,256,508z M199.5,152.2c-4.4-9.7-9-10.1-13.2-10.2h-11.2
			c-6,0.2-11.6,2.8-15.6,7.3c-5.4,5.8-20.5,20-20.5,48.7s21,56.5,23.9,60.4s40.5,64.7,100,88.1c49.5,19.4,59.5,15.6,70.3,14.6
			s34.6-14.1,39.5-27.7s4.9-25.3,3.4-27.8s-5.4-3.9-11.2-6.8s-34.5-17.3-39.9-19.2s-9.3-2.9-13.2,2.9s-15.4,19.3-18.8,23.2
			s-6.8,4.4-12.7,1.5s-24.5-9.2-46.9-29.1c-17.4-15.5-29.5-35.2-32.9-41s-0.4-9,2.6-11.9c2.6-2.6,6.2-6.2,9.1-9.6s3.8-5.8,5.7-9.7
			s1-7.3-0.5-10.2S204.7,163.8,199.5,152.2"/>
		<g>
			<g>
				<defs>
					<path id="SVGID_1_" d="M256,508h-0.1c-39.9,0-79.3-9.4-115-27.3L31.5,505.5c-10.8,2.5-21.5-4.3-24-15c-0.7-2.9-0.7-5.9,0-8.8
						l23.7-107.8C10.8,336.3,0.1,295.1,0,254.3c0-0.1,0-0.3,0-0.4c0-67.7,26.8-131.4,75.4-179.5c99.9-99.2,261.1-99.2,361,0.1
						c48.8,48.6,75.6,112.4,75.6,179.6c0,50.7-15.3,100.2-44,142c-6.4,9-18.9,11.1-27.9,4.6c-8.7-6.2-11-18.2-5.1-27.2
						c24.1-35.1,37-76.8,37-119.4c0-56.5-22.7-110.2-63.9-151.3C367.8,62.4,313,39.8,256,40C137.1,40,40.3,135.7,40,253.5
						c0,0.1,0,0.3,0,0.4c0,36.4,10.2,73.4,29.7,106.9c2.5,4.3,3.3,9.4,2.2,14.3l-18.6,84.4l85.8-19.5c4.7-1.1,9.7-0.4,14,1.9
						c31.6,17.1,66.9,26,102.7,26h0.1c39,0,77.3-10.5,110.8-30.5c9.5-5.7,21.8-2.5,27.4,6.9c5.7,9.5,2.5,21.8-6.9,27.4
						C347.6,495.5,302.2,507.9,256,508z M199.5,152.2c-4.4-9.7-9-10.1-13.2-10.2h-11.2c-6,0.2-11.6,2.8-15.6,7.3
						c-5.4,5.8-20.5,20-20.5,48.7s21,56.5,23.9,60.4s40.5,64.7,100,88.1c49.5,19.4,59.5,15.6,70.3,14.6s34.6-14.1,39.5-27.7
						s4.9-25.3,3.4-27.8s-5.4-3.9-11.2-6.8s-34.5-17.3-39.9-19.2s-9.3-2.9-13.2,2.9s-15.4,19.3-18.8,23.2s-6.8,4.4-12.7,1.5
						s-24.5-9.2-46.9-29.1c-17.4-15.5-29.5-35.2-32.9-41s-0.4-9,2.6-11.9c2.6-2.6,6.2-6.2,9.1-9.6s3.8-5.8,5.7-9.7s1-7.3-0.5-10.2
						S204.7,163.8,199.5,152.2"/>
				</defs>
				<clipPath id="SVGID_2_">
					<use xlink:href="#SVGID_1_"  style="overflow:visible;"/>
				</clipPath>
				<g class="st1">
					<rect id="SVGID-3" class="st2" width="512" height="508"/>
				</g>
			</g>
		</g>
	</g>
</g>
</svg>
