<svg xmlns="http://www.w3.org/2000/svg" xmlns:xlink="http://www.w3.org/1999/xlink" viewBox="0 0 512.02 507.95"><defs><style>.cls-1{fill:url(#Gradiente_sem_nome_14);}.cls-2{clip-path:url(#clip-path);}.cls-3{fill:url(#Gradiente_sem_nome_14-3);}</style><linearGradient id="Gradiente_sem_nome_14" y1="253.97" x2="512" y2="253.97" gradientUnits="userSpaceOnUse"><stop offset="0" stop-color="#28a590"/><stop offset="1" stop-color="#0cb959"/></linearGradient><clipPath id="clip-path"><path id="SVGID" class="cls-1" d="M256,507.95h-.1a256.46,256.46,0,0,1-115-27.34L31.45,505.5a20,20,0,0,1-24-23.8L31.18,373.94C10.82,336.33.06,295.13,0,254.29c0-.14,0-.28,0-.42,0-67.69,26.8-131.44,75.37-179.5a256.13,256.13,0,0,1,361,.06C485.16,123.06,512,186.86,512,254.07a250.57,250.57,0,0,1-44,142,20,20,0,0,1-33-22.59A210.77,210.77,0,0,0,472,254.06c0-56.5-22.67-110.23-63.89-151.29A214.23,214.23,0,0,0,256,40C137.07,40,40.25,135.74,40,253.51c0,.13,0,.25,0,.38,0,36.45,10.24,73.41,29.65,106.89a20,20,0,0,1,2.23,14.33L53.32,459.5,139.16,440a20,20,0,0,1,14,1.92A216.19,216.19,0,0,0,255.9,467.95H256a216.39,216.39,0,0,0,110.77-30.5,20,20,0,0,1,20.48,34.36A256.41,256.41,0,0,1,256,507.95ZM199.51,152.22c-4.39-9.72-9-10.05-13.18-10.22H175.11a21.54,21.54,0,0,0-15.61,7.3c-5.37,5.84-20.5,20-20.5,48.67s21,56.47,23.91,60.36,40.51,64.7,100,88.09c49.46,19.44,59.53,15.57,70.27,14.6s34.65-14.11,39.52-27.74,4.88-25.31,3.42-27.75-5.37-3.89-11.22-6.81S330.37,281.45,325,279.5s-9.27-2.92-13.18,2.93S296.42,301.76,293,305.65s-6.83,4.39-12.69,1.47-24.52-9.2-46.89-29.08c-17.41-15.47-29.49-35.2-32.91-41s-.37-9,2.57-11.91c2.63-2.61,6.19-6.19,9.12-9.59s3.76-5.84,5.71-9.73,1-7.3-.48-10.22-12.71-31.78-17.91-43.32"/></clipPath><linearGradient id="Gradiente_sem_nome_14-3" y1="253.97" x2="512.02" y2="253.97" xlink:href="#Gradiente_sem_nome_14"/></defs><title>Ativo 1</title><g id="Camada_2" data-name="Camada 2"><g id="Camada_1-2" data-name="Camada 1"><path id="SVGID-2" data-name="SVGID" class="cls-1" d="M256,507.95h-.1a256.46,256.46,0,0,1-115-27.34L31.45,505.5a20,20,0,0,1-24-23.8L31.18,373.94C10.82,336.33.06,295.13,0,254.29c0-.14,0-.28,0-.42,0-67.69,26.8-131.44,75.37-179.5a256.13,256.13,0,0,1,361,.06C485.16,123.06,512,186.86,512,254.07a250.57,250.57,0,0,1-44,142,20,20,0,0,1-33-22.59A210.77,210.77,0,0,0,472,254.06c0-56.5-22.67-110.23-63.89-151.29A214.23,214.23,0,0,0,256,40C137.07,40,40.25,135.74,40,253.51c0,.13,0,.25,0,.38,0,36.45,10.24,73.41,29.65,106.89a20,20,0,0,1,2.23,14.33L53.32,459.5,139.16,440a20,20,0,0,1,14,1.92A216.19,216.19,0,0,0,255.9,467.95H256a216.39,216.39,0,0,0,110.77-30.5,20,20,0,0,1,20.48,34.36A256.41,256.41,0,0,1,256,507.95ZM199.51,152.22c-4.39-9.72-9-10.05-13.18-10.22H175.11a21.54,21.54,0,0,0-15.61,7.3c-5.37,5.84-20.5,20-20.5,48.67s21,56.47,23.91,60.36,40.51,64.7,100,88.09c49.46,19.44,59.53,15.57,70.27,14.6s34.65-14.11,39.52-27.74,4.88-25.31,3.42-27.75-5.37-3.89-11.22-6.81S330.37,281.45,325,279.5s-9.27-2.92-13.18,2.93S296.42,301.76,293,305.65s-6.83,4.39-12.69,1.47-24.52-9.2-46.89-29.08c-17.41-15.47-29.49-35.2-32.91-41s-.37-9,2.57-11.91c2.63-2.61,6.19-6.19,9.12-9.59s3.76-5.84,5.71-9.73,1-7.3-.48-10.22-12.71-31.78-17.91-43.32"/><g class="cls-2"><rect id="SVGID-3" data-name="SVGID" class="cls-3" width="512.02" height="507.95"/></g></g></g></svg>