<?xml version="1.0" encoding="utf-8"?>
<!-- Generator: Adobe Illustrator 21.1.0, SVG Export Plug-In . SVG Version: 6.00 Build 0)  -->
<svg version="1.1" id="Camada_1" xmlns="http://www.w3.org/2000/svg" xmlns:xlink="http://www.w3.org/1999/xlink" x="0px" y="0px"
	 viewBox="0 0 990 660" style="enable-background:new 0 0 990 660;" xml:space="preserve">
<g>
	<path d="M669.6,420.7c-1.3-1.3-2.9-1.9-4.9-1.9H459.1c-2,0-3.6,0.6-4.9,1.9c-1.3,1.3-1.9,2.9-1.9,4.9v13.7c0,2,0.6,3.6,1.9,4.9
		c1.3,1.3,2.9,1.9,4.9,1.9h205.6c2,0,3.6-0.6,4.9-1.9c1.3-1.3,1.9-2.9,1.9-4.9v-13.7C671.5,423.6,670.9,422,669.6,420.7L669.6,420.7
		z M669.6,420.7"/>
	<path d="M340.7,218.1c-1.4-1.4-3.1-2.1-4.9-2.1c-1.9,0-3.5,0.7-4.9,2.1l-10.7,10.7c-1.4,1.4-2.1,3.1-2.1,4.9c0,1.9,0.7,3.5,2.1,4.9
		l84.2,84.2L320.1,407c-1.4,1.4-2.1,3.1-2.1,4.9c0,1.9,0.7,3.5,2.1,4.9l10.7,10.7c1.4,1.4,3.1,2.1,4.9,2.1c1.9,0,3.5-0.7,4.9-2.1
		l99.8-99.8c1.4-1.4,2.1-3.1,2.1-4.9c0-1.9-0.7-3.5-2.1-4.9L340.7,218.1z M340.7,218.1"/>
</g>
</svg>
